<?xml version="1.0" encoding="utf-8"?>
<!-- Generator: Adobe Illustrator 26.1.0, SVG Export Plug-In . SVG Version: 6.00 Build 0)  -->
<svg version="1.1" id="Calque_1" xmlns="http://www.w3.org/2000/svg" xmlns:xlink="http://www.w3.org/1999/xlink" x="0px" y="0px"
	 viewBox="0 0 841.9 595.3" style="enable-background:new 0 0 841.9 595.3;" xml:space="preserve">
<style type="text/css">
	.st0{fill:none;stroke:#000000;stroke-width:5;stroke-linejoin:round;stroke-miterlimit:10;}
</style>
<g>
	<g>
		<polygon class="st0" points="223.4,454.1 231.5,517.2 228.6,444.2 		"/>
		<polygon class="st0" points="228.6,444.2 212.9,429.5 199.3,457.6 		"/>
		<polygon class="st0" points="228.6,444.2 223.4,454.1 199.3,457.6 		"/>
		<polygon class="st0" points="223.4,454.1 220.7,507.5 213.3,455.6 		"/>
		<polygon class="st0" points="199.3,457.6 201.9,486.6 213.3,455.6 		"/>
		<polygon class="st0" points="228.6,444.2 246.4,520.8 242.9,444.2 		"/>
		<polygon class="st0" points="242.9,444.2 258.1,438.5 257.4,519.5 		"/>
		<polygon class="st0" points="242.9,444.2 246.4,520.8 257.4,519.5 		"/>
		<polygon class="st0" points="212.9,429.5 230.1,421.8 228.6,444.2 		"/>
		<polygon class="st0" points="258.1,438.5 230.1,421.8 242.9,444.2 		"/>
		<polygon class="st0" points="230.1,421.8 242.9,444.2 228.6,444.2 		"/>
		<path class="st0" d="M258.1,438.5c0.6,0,17.3-5.5,17.3-5.5l15.7,84.2L258.1,438.5z"/>
		<polygon class="st0" points="258.1,438.5 272,514.1 291.1,517.2 		"/>
		<polygon class="st0" points="275.4,433 259.6,397.8 258.1,438.5 		"/>
		<polygon class="st0" points="275.4,433 292.2,489.1 328.7,500.3 		"/>
		<polygon class="st0" points="275.4,433 289.4,428.9 328.7,500.3 		"/>
		<polygon class="st0" points="259.6,397.8 230.1,421.8 258.1,438.5 		"/>
		<polygon class="st0" points="289.4,428.9 289.4,428.9 259.6,397.8 275.4,433 		"/>
		<polygon class="st0" points="289.4,428.9 309.5,419.3 356.2,486.6 		"/>
		<path class="st0" d="M289.4,428.9c0,0,46.2,60.2,46.5,60.2s20.3-2.4,20.3-2.4L289.4,428.9z"/>
		<polygon class="st0" points="259.6,397.8 309.5,419.3 289.4,428.9 		"/>
		<polygon class="st0" points="309.5,418.8 328.7,406.5 362.4,449.1 		"/>
		<polygon class="st0" points="328.7,406.5 275.4,371.3 309.5,418.8 		"/>
		<polygon class="st0" points="259.6,397.8 275.4,371.3 309.5,419.3 		"/>
		<polygon class="st0" points="212.9,429.5 204.6,344.1 259.6,397.8 		"/>
		<polygon class="st0" points="230.1,421.8 212.9,429.5 259.6,397.8 		"/>
		<polygon class="st0" points="275.4,371.3 271.9,300.5 307.3,355.2 		"/>
		<polygon class="st0" points="289.6,380.7 307.3,355.2 275.4,371.3 		"/>
		<polygon class="st0" points="271.9,300.5 313.1,278.8 307.3,355.2 		"/>
		<polygon class="st0" points="307.3,355.2 328.2,312.8 313.1,278.8 		"/>
		<polygon class="st0" points="271.9,300.5 259.6,397.8 275.4,371.3 		"/>
		<polygon class="st0" points="204.6,344.1 271.9,300.5 259.6,397.8 		"/>
		<polygon class="st0" points="313.1,278.8 364.9,231.3 328.2,312.8 		"/>
		<polygon class="st0" points="313.1,278.8 298.6,214.8 364.9,231.3 		"/>
		<polygon class="st0" points="357.7,215.6 336.7,200.8 298.6,214.8 		"/>
		<polygon class="st0" points="338.3,224.7 357.7,215.6 298.6,214.8 		"/>
		<path class="st0" d="M328.2,312.8c0,0,48.9-75.6,48.4-75.7c-0.5-0.1-11.6-5.8-11.6-5.8L328.2,312.8z"/>
		<polygon class="st0" points="376.5,237.1 377.5,215.6 364.9,231.3 		"/>
		<polygon class="st0" points="377.5,215.6 467.5,227.9 377.1,224.7 		"/>
		<polygon class="st0" points="376.5,237.1 408.6,225.8 377.1,224.7 		"/>
		<polyline class="st0" points="298.6,214.8 257.4,249.7 313.1,278.8 298.6,214.8 		"/>
		<polygon class="st0" points="257.4,249.7 251.2,313.9 313.1,278.8 		"/>
		<polygon class="st0" points="257.4,249.7 195.4,186.7 254.8,276.1 		"/>
		<line class="st0" x1="228.8" y1="293.5" x2="243.1" y2="272.1"/>
		<polygon class="st0" points="254.8,276.1 208.9,250.8 238.7,251.8 		"/>
		<polygon class="st0" points="238.7,251.8 195.4,186.7 208.9,250.8 		"/>
		<polygon class="st0" points="240.9,268.4 226.9,292.4 254.8,276.1 		"/>
		<polygon class="st0" points="214.3,280.4 231.9,263.4 240.9,268.4 		"/>
		<path class="st0" d="M208.9,250.8c0,0-7.5,21.1-7.6,21.3c-0.1,0.1,30.6-8.6,30.6-8.6L208.9,250.8z"/>
		<polygon class="st0" points="208.9,250.8 182.5,250.3 205,261.9 		"/>
		<polygon class="st0" points="251.2,313.9 254.8,276.1 204.6,344.1 		"/>
		<polygon class="st0" points="204.6,344.1 214.3,280.4 226.9,292.4 		"/>
		<polygon class="st0" points="226.9,292.4 240.9,268.4 214.3,280.4 		"/>
		<polygon class="st0" points="226.9,292.4 254.8,276.1 204.6,344.1 		"/>
		<polygon class="st0" points="214.3,280.4 201.3,272.1 231.9,263.4 		"/>
		<polygon class="st0" points="201.3,272.1 119.7,293.5 182.5,250.3 		"/>
		<polygon class="st0" points="201.3,272.1 205,261.9 182.5,250.3 		"/>
		<polygon class="st0" points="205.7,343.9 119.2,293.3 202.3,271.9 		"/>
		<polygon class="st0" points="204.6,344.1 214.3,280.4 201.3,272.1 		"/>
		<path class="st0" d="M182.5,250.3c0,0-89.2-29.1-89.2-28.6s26.3,71.8,26.3,71.8L182.5,250.3z"/>
		<path class="st0" d="M206.5,239.5c0,0-31-7.7-30.6-8c0.4-0.4,26.9-9.7,26.9-9.7L206.5,239.5z"/>
		<polygon class="st0" points="195.4,186.7 178,165.5 172.7,186.4 		"/>
		<polygon class="st0" points="200.9,212.9 172.7,198.8 175.9,231.4 		"/>
		<polygon class="st0" points="175.9,231.4 200.9,212.9 202.8,221.7 		"/>
		<polygon class="st0" points="200.9,212.9 195.4,186.7 172.7,186.4 		"/>
		<polygon class="st0" points="172.7,186.4 172.7,198.8 200.9,212.9 		"/>
		<path class="st0" d="M178,165.5c0,0-131.3-92.3-130.7-91.1c0.7,1.2,125.4,111.9,125.4,111.9L178,165.5z"/>
		<polygon class="st0" points="178,165.5 139.5,101.8 47.3,74.4 		"/>
		<polygon class="st0" points="172.7,186.4 47.3,74.4 62.9,129.3 		"/>
		<polygon class="st0" points="172.7,186.4 88.4,205.2 62.9,129.3 		"/>
		<polygon class="st0" points="175.9,231.4 182.5,250.3 206.5,239.5 		"/>
		<polygon class="st0" points="182.5,250.3 208.9,250.8 206.5,239.5 		"/>
		<polygon class="st0" points="182.5,250.3 93.4,221.7 172.7,186.4 		"/>
		<polygon class="st0" points="93.4,221.7 88.4,205.2 172.7,186.4 		"/>
		<polygon class="st0" points="357.7,215.6 377.5,215.6 336.7,200.8 		"/>
		<polygon class="st0" points="348.9,222.8 357.7,215.6 352.8,228.3 		"/>
		<polygon class="st0" points="357.7,215.6 364.9,231.3 352.8,228.3 		"/>
		<polygon class="st0" points="348.9,222.8 338.3,224.7 352.8,228.3 		"/>
		<polygon class="st0" points="348.9,222.8 357.7,215.6 338.3,224.7 		"/>
		<polygon class="st0" points="364.9,231.3 365.6,221.8 357.7,215.6 		"/>
		<polygon class="st0" points="365.6,221.8 377.5,215.6 357.7,215.6 		"/>
		<polygon class="st0" points="364.9,231.3 377.5,215.6 365.6,221.8 		"/>
	</g>
</g>
</svg>
